<mxfile host="65bd71144e">
    <diagram id="qW6fN806aLsybcsK1paV" name="GIt data flow">
        <mxGraphModel dx="400" dy="274" grid="1" gridSize="10" guides="1" tooltips="1" connect="1" arrows="1" fold="1" page="1" pageScale="1" pageWidth="1169" pageHeight="827" math="0" shadow="0">
            <root>
                <mxCell id="0"/>
                <mxCell id="1" parent="0"/>
                <mxCell id="47" value="" style="endArrow=none;html=1;fontSize=14;fontColor=#ffffff;strokeWidth=4;fillColor=#6d8764;gradientColor=#b3b3b3;strokeColor=#D79B00;rounded=0;" parent="1" edge="1">
                    <mxGeometry width="50" height="50" relative="1" as="geometry">
                        <mxPoint x="516.7099999999999" y="200" as="sourcePoint"/>
                        <mxPoint x="517" y="550" as="targetPoint"/>
                    </mxGeometry>
                </mxCell>
                <mxCell id="50" value="" style="rounded=1;whiteSpace=wrap;html=1;sketch=0;fillColor=#E6E6E6;strokeColor=#6c8ebf;" parent="1" vertex="1">
                    <mxGeometry x="120" y="100" width="835" height="120" as="geometry"/>
                </mxCell>
                <mxCell id="2" value="&lt;font color=&quot;#000000&quot;&gt;Working Directory&lt;br&gt;(local files)&lt;br&gt;&lt;/font&gt;" style="rounded=0;whiteSpace=wrap;html=1;fillColor=#f5f5f5;strokeColor=#666666;fontSize=14;gradientColor=#b3b3b3;" parent="1" vertex="1">
                    <mxGeometry x="201" y="121.26" width="86" height="78.74" as="geometry"/>
                </mxCell>
                <mxCell id="10" value="" style="endArrow=none;html=1;fontSize=14;fontColor=#000000;strokeWidth=6;strokeColor=#B3B3B3;startArrow=none;" parent="1" source="70" edge="1">
                    <mxGeometry width="50" height="50" relative="1" as="geometry">
                        <mxPoint x="121" y="60" as="sourcePoint"/>
                        <mxPoint x="1011" y="60" as="targetPoint"/>
                    </mxGeometry>
                </mxCell>
                <mxCell id="13" value="" style="endArrow=none;html=1;fontSize=14;fontColor=#ffffff;strokeWidth=4;fillColor=#f5f5f5;gradientColor=#b3b3b3;strokeColor=#666666;rounded=0;" parent="1" edge="1">
                    <mxGeometry width="50" height="50" relative="1" as="geometry">
                        <mxPoint x="222.76" y="200" as="sourcePoint"/>
                        <mxPoint x="223" y="550" as="targetPoint"/>
                    </mxGeometry>
                </mxCell>
                <mxCell id="17" value="&lt;span style=&quot;color: rgb(0 , 0 , 0)&quot;&gt;Staging Area / Index&lt;/span&gt;&lt;br style=&quot;color: rgb(0 , 0 , 0)&quot;&gt;&lt;span style=&quot;color: rgb(0 , 0 , 0)&quot;&gt;&amp;nbsp;(.git)&lt;/span&gt;&lt;font color=&quot;#000000&quot;&gt;&lt;br&gt;&lt;/font&gt;" style="rounded=0;whiteSpace=wrap;html=1;fillColor=#ffcd28;strokeColor=#d79b00;fontSize=14;gradientColor=#ffa500;" parent="1" vertex="1">
                    <mxGeometry x="447" y="121.26" width="140" height="78.74" as="geometry"/>
                </mxCell>
                <mxCell id="18" value="&lt;font color=&quot;#000000&quot; style=&quot;font-size: 14px&quot;&gt;Local Repository&lt;br&gt;&lt;/font&gt;&lt;font color=&quot;#000000&quot;&gt;(.git)&lt;br&gt;&lt;/font&gt;" style="rounded=0;whiteSpace=wrap;html=1;fillColor=#6d8764;strokeColor=#3A5431;fontSize=14;fontColor=#ffffff;" parent="1" vertex="1">
                    <mxGeometry x="715" y="121.26" width="140" height="78.74" as="geometry"/>
                </mxCell>
                <mxCell id="19" value="&lt;font color=&quot;#000000&quot; style=&quot;font-size: 14px&quot;&gt;Remote Repository&lt;br&gt;&lt;/font&gt;&lt;font color=&quot;#000000&quot;&gt;https://github.com&lt;br&gt;&lt;/font&gt;" style="rounded=0;whiteSpace=wrap;html=1;fillColor=#76608a;strokeColor=#432D57;fontSize=14;fontColor=#ffffff;" parent="1" vertex="1">
                    <mxGeometry x="1001" y="121.26" width="140" height="78.74" as="geometry"/>
                </mxCell>
                <mxCell id="20" value="" style="endArrow=none;html=1;fontSize=14;fontColor=#ffffff;strokeWidth=4;fillColor=#6d8764;gradientColor=#b3b3b3;strokeColor=#3A5431;rounded=0;" parent="1" edge="1">
                    <mxGeometry width="50" height="50" relative="1" as="geometry">
                        <mxPoint x="784.58" y="200" as="sourcePoint"/>
                        <mxPoint x="784.82" y="550" as="targetPoint"/>
                    </mxGeometry>
                </mxCell>
                <mxCell id="22" value="" style="endArrow=none;html=1;fontSize=14;fontColor=#ffffff;strokeWidth=4;fillColor=#76608a;gradientColor=#b3b3b3;strokeColor=#432D57;rounded=0;" parent="1" edge="1">
                    <mxGeometry width="50" height="50" relative="1" as="geometry">
                        <mxPoint x="1070.58" y="200" as="sourcePoint"/>
                        <mxPoint x="1070.8200000000002" y="550" as="targetPoint"/>
                    </mxGeometry>
                </mxCell>
                <mxCell id="35" value="" style="endArrow=classic;html=1;" parent="1" edge="1">
                    <mxGeometry relative="1" as="geometry">
                        <mxPoint x="231" y="240" as="sourcePoint"/>
                        <mxPoint x="513" y="240" as="targetPoint"/>
                    </mxGeometry>
                </mxCell>
                <mxCell id="36" value="&amp;nbsp;git add &amp;lt;file&amp;gt; [ . ] / mv / rm&amp;nbsp;" style="edgeLabel;resizable=0;html=1;align=center;verticalAlign=middle;sketch=1;" parent="35" connectable="0" vertex="1">
                    <mxGeometry relative="1" as="geometry"/>
                </mxCell>
                <mxCell id="37" value="" style="endArrow=classic;html=1;" parent="1" edge="1">
                    <mxGeometry relative="1" as="geometry">
                        <mxPoint x="523" y="240" as="sourcePoint"/>
                        <mxPoint x="773" y="240" as="targetPoint"/>
                    </mxGeometry>
                </mxCell>
                <mxCell id="38" value="&amp;nbsp;git commit&amp;nbsp;" style="edgeLabel;resizable=0;html=1;align=center;verticalAlign=middle;sketch=1;" parent="37" connectable="0" vertex="1">
                    <mxGeometry relative="1" as="geometry"/>
                </mxCell>
                <mxCell id="39" value="" style="endArrow=classic;html=1;" parent="1" edge="1">
                    <mxGeometry relative="1" as="geometry">
                        <mxPoint x="794" y="240" as="sourcePoint"/>
                        <mxPoint x="1064" y="240" as="targetPoint"/>
                    </mxGeometry>
                </mxCell>
                <mxCell id="40" value="&amp;nbsp;git push&amp;nbsp;" style="edgeLabel;resizable=0;html=1;align=center;verticalAlign=middle;sketch=1;" parent="39" connectable="0" vertex="1">
                    <mxGeometry relative="1" as="geometry"/>
                </mxCell>
                <mxCell id="41" value="" style="endArrow=none;html=1;endFill=0;startArrow=classic;startFill=1;" parent="1" edge="1">
                    <mxGeometry relative="1" as="geometry">
                        <mxPoint x="795" y="286" as="sourcePoint"/>
                        <mxPoint x="1057" y="286" as="targetPoint"/>
                    </mxGeometry>
                </mxCell>
                <mxCell id="42" value="&amp;nbsp;git fetch&amp;nbsp;" style="edgeLabel;resizable=0;html=1;align=center;verticalAlign=middle;sketch=1;" parent="41" connectable="0" vertex="1">
                    <mxGeometry relative="1" as="geometry"/>
                </mxCell>
                <mxCell id="43" value="" style="endArrow=none;html=1;endFill=0;startArrow=classic;startFill=1;" parent="1" edge="1">
                    <mxGeometry relative="1" as="geometry">
                        <mxPoint x="228" y="455" as="sourcePoint"/>
                        <mxPoint x="1058" y="455" as="targetPoint"/>
                    </mxGeometry>
                </mxCell>
                <mxCell id="44" value="&amp;nbsp;git clone / pull [-r]&amp;nbsp;" style="edgeLabel;resizable=0;html=1;align=center;verticalAlign=middle;sketch=1;" parent="43" connectable="0" vertex="1">
                    <mxGeometry relative="1" as="geometry"/>
                </mxCell>
                <mxCell id="45" value="" style="endArrow=none;html=1;endFill=0;startArrow=classic;startFill=1;" parent="1" edge="1">
                    <mxGeometry relative="1" as="geometry">
                        <mxPoint x="227" y="408" as="sourcePoint"/>
                        <mxPoint x="777" y="408" as="targetPoint"/>
                    </mxGeometry>
                </mxCell>
                <mxCell id="46" value="&amp;nbsp;git checkout HEAD&amp;nbsp;" style="edgeLabel;resizable=0;html=1;align=center;verticalAlign=middle;sketch=1;" parent="45" connectable="0" vertex="1">
                    <mxGeometry relative="1" as="geometry"/>
                </mxCell>
                <mxCell id="48" value="" style="endArrow=none;html=1;endFill=0;startArrow=classic;startFill=1;" parent="1" edge="1">
                    <mxGeometry relative="1" as="geometry">
                        <mxPoint x="229.0000000000001" y="285.9999999999999" as="sourcePoint"/>
                        <mxPoint x="779" y="285.9999999999999" as="targetPoint"/>
                    </mxGeometry>
                </mxCell>
                <mxCell id="49" value="&amp;nbsp;git merge&amp;nbsp; &amp;lt;target-branch&amp;gt; / git rebase&amp;nbsp;" style="edgeLabel;resizable=0;html=1;align=center;verticalAlign=middle;sketch=1;" parent="48" connectable="0" vertex="1">
                    <mxGeometry relative="1" as="geometry"/>
                </mxCell>
                <mxCell id="52" value="&lt;font style=&quot;font-size: 14px&quot; color=&quot;#ffffff&quot;&gt;&lt;b&gt;git status&lt;/b&gt;&lt;/font&gt;" style="rounded=1;whiteSpace=wrap;html=1;sketch=0;fillColor=#333333;glass=0;" parent="1" vertex="1">
                    <mxGeometry x="291" y="132.61" width="74.803" height="22.047199999999997" as="geometry"/>
                </mxCell>
                <mxCell id="53" value="&lt;font style=&quot;font-size: 14px&quot; color=&quot;#ffffff&quot;&gt;&lt;b&gt;git diff&lt;/b&gt;&lt;/font&gt;" style="rounded=1;whiteSpace=wrap;html=1;sketch=0;fillColor=#333333;" parent="1" vertex="1">
                    <mxGeometry x="291" y="166.61" width="74.803" height="22.047199999999997" as="geometry"/>
                </mxCell>
                <mxCell id="54" value="&lt;font style=&quot;font-size: 14px&quot; color=&quot;#ffffff&quot;&gt;&lt;b&gt;git log&lt;/b&gt;&lt;/font&gt;" style="rounded=1;whiteSpace=wrap;html=1;sketch=0;fillColor=#333333;glass=0;" parent="1" vertex="1">
                    <mxGeometry x="861" y="131.98000000000002" width="74.803" height="22.047199999999997" as="geometry"/>
                </mxCell>
                <mxCell id="55" value="&lt;font style=&quot;font-size: 14px&quot; color=&quot;#ffffff&quot;&gt;&lt;b&gt;git show&lt;/b&gt;&lt;/font&gt;" style="rounded=1;whiteSpace=wrap;html=1;sketch=0;fillColor=#333333;" parent="1" vertex="1">
                    <mxGeometry x="861" y="165.98000000000002" width="74.803" height="22.047199999999997" as="geometry"/>
                </mxCell>
                <mxCell id="56" value="" style="endArrow=classic;html=1;" parent="1" edge="1">
                    <mxGeometry relative="1" as="geometry">
                        <mxPoint x="229" y="262" as="sourcePoint"/>
                        <mxPoint x="769" y="262" as="targetPoint"/>
                    </mxGeometry>
                </mxCell>
                <mxCell id="57" value="&amp;nbsp;git commit -a&amp;nbsp;" style="edgeLabel;resizable=0;html=1;align=center;verticalAlign=middle;sketch=1;" parent="56" connectable="0" vertex="1">
                    <mxGeometry relative="1" as="geometry"/>
                </mxCell>
                <mxCell id="58" value="" style="endArrow=none;html=1;endFill=0;startArrow=classic;startFill=1;" parent="1" edge="1">
                    <mxGeometry relative="1" as="geometry">
                        <mxPoint x="227" y="315" as="sourcePoint"/>
                        <mxPoint x="511" y="315" as="targetPoint"/>
                    </mxGeometry>
                </mxCell>
                <mxCell id="59" value="&amp;nbsp;git reset [ &amp;lt;file&amp;gt; ]&amp;nbsp;" style="edgeLabel;resizable=0;html=1;align=center;verticalAlign=middle;sketch=1;" parent="58" connectable="0" vertex="1">
                    <mxGeometry relative="1" as="geometry"/>
                </mxCell>
                <mxCell id="60" value="" style="endArrow=none;html=1;endFill=0;startArrow=classic;startFill=1;" parent="1" edge="1">
                    <mxGeometry relative="1" as="geometry">
                        <mxPoint x="226" y="333" as="sourcePoint"/>
                        <mxPoint x="776" y="333" as="targetPoint"/>
                    </mxGeometry>
                </mxCell>
                <mxCell id="61" value="&amp;nbsp;git reset --hard&amp;nbsp;" style="edgeLabel;resizable=0;html=1;align=center;verticalAlign=middle;sketch=1;" parent="60" connectable="0" vertex="1">
                    <mxGeometry relative="1" as="geometry"/>
                </mxCell>
                <mxCell id="66" value="" style="ellipse;whiteSpace=wrap;html=1;aspect=fixed;glass=0;sketch=0;fontSize=14;fontColor=#000000;fillColor=#CCCCCC;labelBackgroundColor=default;endArrow=none;rounded=1;strokeColor=#B3B3B3;strokeWidth=1;" parent="1" vertex="1">
                    <mxGeometry x="161.51" y="53" width="13.78" height="13.779499999999999" as="geometry"/>
                </mxCell>
                <mxCell id="67" value="" style="endArrow=none;html=1;fontSize=14;fontColor=#000000;strokeWidth=6;strokeColor=#B3B3B3;startArrow=none;" parent="1" source="62" target="66" edge="1">
                    <mxGeometry width="50" height="50" relative="1" as="geometry">
                        <mxPoint x="121" y="60" as="sourcePoint"/>
                        <mxPoint x="1011" y="60" as="targetPoint"/>
                    </mxGeometry>
                </mxCell>
                <mxCell id="70" value="" style="ellipse;whiteSpace=wrap;html=1;aspect=fixed;glass=0;sketch=0;fontSize=14;fontColor=#000000;fillColor=#CCCCCC;labelBackgroundColor=default;endArrow=none;rounded=1;strokeColor=#B3B3B3;strokeWidth=1;" parent="1" vertex="1">
                    <mxGeometry x="192.02" y="53" width="13.78" height="13.779499999999999" as="geometry"/>
                </mxCell>
                <mxCell id="76" value="" style="endArrow=none;html=1;fontSize=14;fontColor=#000000;strokeWidth=6;strokeColor=#B3B3B3;startArrow=none;" parent="1" source="66" target="70" edge="1">
                    <mxGeometry width="50" height="50" relative="1" as="geometry">
                        <mxPoint x="174.78000000000264" y="59.88974999999999" as="sourcePoint"/>
                        <mxPoint x="1011" y="60" as="targetPoint"/>
                    </mxGeometry>
                </mxCell>
                <mxCell id="62" value="" style="ellipse;whiteSpace=wrap;html=1;aspect=fixed;glass=0;sketch=0;fontSize=14;fontColor=#000000;fillColor=#CCCCCC;labelBackgroundColor=default;endArrow=none;rounded=1;strokeColor=#B3B3B3;strokeWidth=1;" parent="1" vertex="1">
                    <mxGeometry x="133.22" y="53" width="13.78" height="13.779499999999999" as="geometry"/>
                </mxCell>
                <mxCell id="77" value="" style="endArrow=none;html=1;fontSize=14;fontColor=#000000;strokeWidth=6;strokeColor=#B3B3B3;" parent="1" target="62" edge="1">
                    <mxGeometry width="50" height="50" relative="1" as="geometry">
                        <mxPoint x="121" y="60" as="sourcePoint"/>
                        <mxPoint x="161.5099999999975" y="59.88974999999999" as="targetPoint"/>
                    </mxGeometry>
                </mxCell>
                <mxCell id="78" value="" style="endArrow=oval;html=1;endFill=1;startArrow=oval;startFill=1;" parent="1" edge="1">
                    <mxGeometry relative="1" as="geometry">
                        <mxPoint x="230" y="365" as="sourcePoint"/>
                        <mxPoint x="511" y="365" as="targetPoint"/>
                    </mxGeometry>
                </mxCell>
                <mxCell id="79" value="&amp;nbsp;git diff&amp;nbsp;" style="edgeLabel;resizable=0;html=1;align=center;verticalAlign=middle;sketch=1;" parent="78" connectable="0" vertex="1">
                    <mxGeometry relative="1" as="geometry"/>
                </mxCell>
                <mxCell id="80" value="" style="endArrow=oval;html=1;endFill=1;startArrow=oval;startFill=1;" parent="1" edge="1">
                    <mxGeometry relative="1" as="geometry">
                        <mxPoint x="231" y="380" as="sourcePoint"/>
                        <mxPoint x="773" y="380" as="targetPoint"/>
                    </mxGeometry>
                </mxCell>
                <mxCell id="81" value="&amp;nbsp;git diff HEAD&amp;nbsp;" style="edgeLabel;resizable=0;html=1;align=center;verticalAlign=middle;sketch=1;" parent="80" connectable="0" vertex="1">
                    <mxGeometry relative="1" as="geometry"/>
                </mxCell>
                <mxCell id="82" value="" style="endArrow=none;html=1;endFill=0;startArrow=classic;startFill=1;" parent="1" edge="1">
                    <mxGeometry relative="1" as="geometry">
                        <mxPoint x="228" y="424" as="sourcePoint"/>
                        <mxPoint x="512" y="424" as="targetPoint"/>
                    </mxGeometry>
                </mxCell>
                <mxCell id="83" value="&amp;nbsp;git checkout &amp;lt;branch-name&amp;gt;&amp;nbsp;" style="edgeLabel;resizable=0;html=1;align=center;verticalAlign=middle;sketch=1;" parent="82" connectable="0" vertex="1">
                    <mxGeometry relative="1" as="geometry"/>
                </mxCell>
                <mxCell id="105" value="&lt;font style=&quot;font-size: 14px&quot; color=&quot;#ffffff&quot;&gt;&lt;b&gt;git init&lt;/b&gt;&lt;/font&gt;" style="rounded=1;whiteSpace=wrap;html=1;sketch=0;fillColor=#333333;align=left;" parent="1" vertex="1">
                    <mxGeometry x="74.63999999999999" y="550" width="74.803" height="22.047199999999997" as="geometry"/>
                </mxCell>
                <mxCell id="106" value="&lt;div style=&quot;font-size: 14px&quot;&gt;&lt;b&gt;&lt;font color=&quot;#ffffff&quot; style=&quot;font-size: 14px&quot;&gt;git remote add origin&amp;nbsp;&lt;/font&gt;&lt;a class=&quot;au nb&quot; href=&quot;mailto:git@github.com&quot; target=&quot;_blank&quot;&gt;git@github.com&lt;/a&gt;:&amp;lt;user_name&amp;gt;/test.git&lt;/b&gt;&lt;/div&gt;" style="rounded=1;whiteSpace=wrap;html=1;sketch=0;fillColor=#333333;align=left;" parent="1" vertex="1">
                    <mxGeometry x="74.64" y="580" width="416.36" height="22.05" as="geometry"/>
                </mxCell>
                <mxCell id="107" value="&lt;div style=&quot;font-size: 14px&quot;&gt;&lt;b&gt;&lt;font color=&quot;#ffffff&quot; style=&quot;font-size: 14px&quot;&gt;git&amp;nbsp;&lt;/font&gt;&lt;span&gt;branch -M main&lt;/span&gt;&lt;/b&gt;&lt;/div&gt;" style="rounded=1;whiteSpace=wrap;html=1;sketch=0;fillColor=#333333;align=left;" parent="1" vertex="1">
                    <mxGeometry x="74.64" y="610" width="146.36" height="22.05" as="geometry"/>
                </mxCell>
                <mxCell id="108" value="&lt;div style=&quot;font-size: 14px&quot;&gt;&lt;b&gt;&lt;font color=&quot;#ffffff&quot; style=&quot;font-size: 14px&quot;&gt;git&amp;nbsp;&lt;/font&gt;&lt;span&gt;push -u origin main&lt;/span&gt;&lt;/b&gt;&lt;/div&gt;" style="rounded=1;whiteSpace=wrap;html=1;sketch=0;fillColor=#333333;align=left;" parent="1" vertex="1">
                    <mxGeometry x="75.66" y="640" width="165.34" height="22.05" as="geometry"/>
                </mxCell>
                <mxCell id="109" value="compare" style="text;html=1;strokeColor=#666666;fillColor=#CCCCCC;align=center;verticalAlign=middle;whiteSpace=wrap;rounded=1;glass=0;sketch=0;fontSize=12;fontColor=#333333;rotation=0;shadow=0;" parent="1" vertex="1">
                    <mxGeometry x="261" y="362" width="62" height="19" as="geometry"/>
                </mxCell>
                <mxCell id="112" value="" style="group" vertex="1" connectable="0" parent="1">
                    <mxGeometry x="130" y="120" width="75.27000000000001" height="76.97999999999999" as="geometry"/>
                </mxCell>
                <mxCell id="88" value=".git" style="text;strokeColor=none;fillColor=none;align=left;verticalAlign=middle;spacingLeft=2;spacingRight=2;overflow=hidden;points=[[0,0.5],[1,0.5]];portConstraint=eastwest;rotatable=0;glass=0;sketch=1;fontSize=12;fontColor=#000000;" parent="112" vertex="1">
                    <mxGeometry x="19.22" width="26.56" height="20" as="geometry"/>
                </mxCell>
                <mxCell id="91" value="src" style="text;strokeColor=none;fillColor=none;align=left;verticalAlign=middle;spacingLeft=2;spacingRight=2;overflow=hidden;points=[[0,0.5],[1,0.5]];portConstraint=eastwest;rotatable=0;glass=0;sketch=1;fontSize=12;fontColor=#000000;" parent="112" vertex="1">
                    <mxGeometry x="20" y="25.659999999999997" width="34.56" height="20" as="geometry"/>
                </mxCell>
                <mxCell id="97" value="" style="whiteSpace=wrap;html=1;aspect=fixed;glass=0;sketch=0;fontSize=14;fontColor=#000000;strokeWidth=1;fillColor=none;strokeColor=#000000;shadow=0;rounded=1;" parent="112" vertex="1">
                    <mxGeometry y="27" width="20" height="20" as="geometry"/>
                </mxCell>
                <mxCell id="98" value="" style="whiteSpace=wrap;html=1;aspect=fixed;glass=0;sketch=1;fontSize=14;fontColor=#000000;strokeWidth=1;fillColor=none;strokeColor=#000000;rounded=1;" parent="112" vertex="1">
                    <mxGeometry width="20" height="20" as="geometry"/>
                </mxCell>
                <mxCell id="90" value="" style="edgeStyle=none;html=1;fontSize=14;fontColor=#000000;startArrow=none;startFill=0;endArrow=none;endFill=0;strokeColor=#B3B3B3;strokeWidth=1;entryX=0.5;entryY=0;entryDx=0;entryDy=0;exitX=0.5;exitY=1;exitDx=0;exitDy=0;" parent="112" source="98" target="97" edge="1">
                    <mxGeometry relative="1" as="geometry">
                        <mxPoint x="16" y="21" as="sourcePoint"/>
                        <mxPoint x="16.29666666666668" y="31" as="targetPoint"/>
                    </mxGeometry>
                </mxCell>
                <mxCell id="100" value="" style="whiteSpace=wrap;html=1;shape=mxgraph.basic.document;glass=0;sketch=1;fontSize=14;fontColor=#000000;strokeWidth=1;fillColor=none;strokeColor=#1A1A1A;" parent="112" vertex="1">
                    <mxGeometry y="56.97999999999999" width="20" height="20" as="geometry"/>
                </mxCell>
                <mxCell id="102" value="main.py" style="text;strokeColor=none;fillColor=none;align=left;verticalAlign=middle;spacingLeft=2;spacingRight=2;overflow=hidden;points=[[0,0.5],[1,0.5]];portConstraint=eastwest;rotatable=0;glass=0;sketch=1;fontSize=12;fontColor=#000000;" parent="112" vertex="1">
                    <mxGeometry x="19.22" y="56.97999999999999" width="56.05" height="20" as="geometry"/>
                </mxCell>
                <mxCell id="111" value="" style="edgeStyle=none;html=1;fontSize=14;fontColor=#000000;startArrow=none;startFill=0;endArrow=none;endFill=0;strokeColor=#B3B3B3;strokeWidth=1;entryX=0.5;entryY=0;entryDx=0;entryDy=0;exitX=0.5;exitY=1;exitDx=0;exitDy=0;entryPerimeter=0;" edge="1" parent="112" source="97" target="100">
                    <mxGeometry relative="1" as="geometry">
                        <mxPoint x="9.930000000000035" y="50.610000000000014" as="sourcePoint"/>
                        <mxPoint x="9.930000000000035" y="57.610000000000014" as="targetPoint"/>
                    </mxGeometry>
                </mxCell>
                <mxCell id="113" value="&lt;font color=&quot;#000000&quot;&gt;Stash&lt;br&gt;&lt;/font&gt;" style="rounded=0;whiteSpace=wrap;html=1;fillColor=#a0522d;strokeColor=#6D1F00;fontSize=14;fontColor=#ffffff;" vertex="1" parent="1">
                    <mxGeometry x="10" y="119.99999999999999" width="86" height="78.74" as="geometry"/>
                </mxCell>
                <mxCell id="114" value="" style="endArrow=none;html=1;fontSize=14;fontColor=#ffffff;strokeWidth=4;fillColor=#a0522d;gradientColor=#b3b3b3;strokeColor=#6D1F00;rounded=0;" edge="1" parent="1">
                    <mxGeometry width="50" height="50" relative="1" as="geometry">
                        <mxPoint x="52.76" y="200" as="sourcePoint"/>
                        <mxPoint x="53.00000000000001" y="550" as="targetPoint"/>
                    </mxGeometry>
                </mxCell>
                <mxCell id="115" value="" style="endArrow=classic;html=1;" edge="1" parent="1">
                    <mxGeometry relative="1" as="geometry">
                        <mxPoint x="64.07" y="240" as="sourcePoint"/>
                        <mxPoint x="216.16" y="240" as="targetPoint"/>
                    </mxGeometry>
                </mxCell>
                <mxCell id="116" value="&amp;nbsp;git stash apply&amp;nbsp;" style="edgeLabel;resizable=0;html=1;align=center;verticalAlign=middle;sketch=1;" connectable="0" vertex="1" parent="115">
                    <mxGeometry relative="1" as="geometry"/>
                </mxCell>
                <mxCell id="117" value="" style="endArrow=none;html=1;endFill=0;startArrow=classic;startFill=1;" edge="1" parent="1">
                    <mxGeometry relative="1" as="geometry">
                        <mxPoint x="60.91" y="269" as="sourcePoint"/>
                        <mxPoint x="214" y="269" as="targetPoint"/>
                    </mxGeometry>
                </mxCell>
                <mxCell id="118" value="&amp;nbsp;git stash&amp;nbsp;" style="edgeLabel;resizable=0;html=1;align=center;verticalAlign=middle;sketch=1;" connectable="0" vertex="1" parent="117">
                    <mxGeometry relative="1" as="geometry"/>
                </mxCell>
                <mxCell id="119" value="" style="endArrow=none;html=1;endFill=0;startArrow=classic;startFill=1;" edge="1" parent="1">
                    <mxGeometry relative="1" as="geometry">
                        <mxPoint x="525" y="424" as="sourcePoint"/>
                        <mxPoint x="775" y="424" as="targetPoint"/>
                    </mxGeometry>
                </mxCell>
                <mxCell id="120" value="&amp;nbsp;git reset --soft&amp;nbsp;" style="edgeLabel;resizable=0;html=1;align=center;verticalAlign=middle;sketch=1;" connectable="0" vertex="1" parent="119">
                    <mxGeometry relative="1" as="geometry"/>
                </mxCell>
            </root>
        </mxGraphModel>
    </diagram>
</mxfile>